<mxfile host="app.diagrams.net" agent="Mozilla/5.0 (X11; Ubuntu; Linux x86_64; rv:132.0) Gecko/20100101 Firefox/132.0" version="24.8.4">
  <diagram name="Page-1" id="SZoWqR-uh5Kph6MIr1Br">
    <mxGraphModel dx="574" dy="310" grid="1" gridSize="10" guides="1" tooltips="1" connect="1" arrows="1" fold="1" page="1" pageScale="1" pageWidth="850" pageHeight="1100" math="0" shadow="0">
      <root>
        <mxCell id="0" />
        <mxCell id="1" parent="0" />
        <mxCell id="3MHKbCmlPxJNISNlzJIJ-70" value="&lt;div&gt;Jedn. obliczeniowa&lt;/div&gt;&lt;div&gt;nr 1&lt;/div&gt;" style="ellipse;whiteSpace=wrap;html=1;fillColor=none;" vertex="1" parent="1">
          <mxGeometry x="330" y="570" width="120" height="80" as="geometry" />
        </mxCell>
        <mxCell id="3MHKbCmlPxJNISNlzJIJ-71" value="&lt;div&gt;Jedn. obliczeniowa&lt;/div&gt;&lt;div&gt;nr 2&lt;br&gt;&lt;/div&gt;" style="ellipse;whiteSpace=wrap;html=1;fillColor=none;" vertex="1" parent="1">
          <mxGeometry x="485" y="570" width="120" height="80" as="geometry" />
        </mxCell>
        <mxCell id="3MHKbCmlPxJNISNlzJIJ-72" value="&lt;div&gt;Jedn. obliczeniowa&lt;/div&gt;&lt;div&gt;nr n&lt;br&gt;&lt;/div&gt;" style="ellipse;whiteSpace=wrap;html=1;fillColor=none;" vertex="1" parent="1">
          <mxGeometry x="637" y="570" width="120" height="80" as="geometry" />
        </mxCell>
        <mxCell id="3MHKbCmlPxJNISNlzJIJ-73" value="..." style="text;html=1;align=center;verticalAlign=middle;resizable=0;points=[];autosize=1;strokeColor=none;fillColor=none;" vertex="1" parent="1">
          <mxGeometry x="607" y="595" width="30" height="30" as="geometry" />
        </mxCell>
        <mxCell id="3MHKbCmlPxJNISNlzJIJ-99" value="" style="rounded=1;whiteSpace=wrap;html=1;fillColor=none;fontColor=#1a5fb4;strokeColor=#181a1b;" vertex="1" parent="1">
          <mxGeometry x="494.76" y="389" width="100" height="159" as="geometry" />
        </mxCell>
        <mxCell id="3MHKbCmlPxJNISNlzJIJ-82" value="Proces 3" style="rounded=1;whiteSpace=wrap;html=1;fillColor=none;fontColor=#181a1b;strokeColor=#181a1b;" vertex="1" parent="1">
          <mxGeometry x="504.76" y="439" width="80" height="30" as="geometry" />
        </mxCell>
        <mxCell id="3MHKbCmlPxJNISNlzJIJ-83" value="Proces 2" style="rounded=1;whiteSpace=wrap;html=1;fillColor=none;fontColor=#181a1b;strokeColor=#181a1b;" vertex="1" parent="1">
          <mxGeometry x="504.76" y="472" width="80" height="30" as="geometry" />
        </mxCell>
        <mxCell id="3MHKbCmlPxJNISNlzJIJ-84" value="Proces 1" style="rounded=1;whiteSpace=wrap;html=1;fillColor=none;fontColor=#181a1b;strokeColor=#181a1b;" vertex="1" parent="1">
          <mxGeometry x="504.76" y="505" width="80" height="30" as="geometry" />
        </mxCell>
        <mxCell id="3MHKbCmlPxJNISNlzJIJ-85" value="..." style="text;html=1;align=center;verticalAlign=middle;resizable=0;points=[];autosize=1;strokeColor=none;fillColor=none;fontColor=#181a1b;" vertex="1" parent="1">
          <mxGeometry x="529.76" y="409" width="30" height="30" as="geometry" />
        </mxCell>
        <mxCell id="3MHKbCmlPxJNISNlzJIJ-96" style="edgeStyle=orthogonalEdgeStyle;rounded=0;orthogonalLoop=1;jettySize=auto;html=1;exitX=0.5;exitY=1;exitDx=0;exitDy=0;entryX=0.5;entryY=0;entryDx=0;entryDy=0;strokeColor=#181a1b;" edge="1" parent="1" source="3MHKbCmlPxJNISNlzJIJ-99">
          <mxGeometry relative="1" as="geometry">
            <mxPoint x="544.76" y="570" as="targetPoint" />
          </mxGeometry>
        </mxCell>
        <mxCell id="3MHKbCmlPxJNISNlzJIJ-97" style="edgeStyle=orthogonalEdgeStyle;rounded=0;orthogonalLoop=1;jettySize=auto;html=1;exitX=0;exitY=0.75;exitDx=0;exitDy=0;entryX=0.5;entryY=0;entryDx=0;entryDy=0;curved=1;strokeColor=#181a1b;" edge="1" parent="1" source="3MHKbCmlPxJNISNlzJIJ-99">
          <mxGeometry relative="1" as="geometry">
            <mxPoint x="389.76" y="570" as="targetPoint" />
          </mxGeometry>
        </mxCell>
        <mxCell id="3MHKbCmlPxJNISNlzJIJ-98" style="edgeStyle=orthogonalEdgeStyle;rounded=0;orthogonalLoop=1;jettySize=auto;html=1;exitX=1;exitY=0.75;exitDx=0;exitDy=0;entryX=0.5;entryY=0;entryDx=0;entryDy=0;curved=1;strokeColor=#181a1b;" edge="1" parent="1" source="3MHKbCmlPxJNISNlzJIJ-99">
          <mxGeometry relative="1" as="geometry">
            <mxPoint x="699.76" y="570" as="targetPoint" />
          </mxGeometry>
        </mxCell>
        <mxCell id="3MHKbCmlPxJNISNlzJIJ-100" value="&lt;div&gt;Kolejka&lt;/div&gt;&lt;div&gt;globalna&lt;br&gt;&lt;/div&gt;" style="text;html=1;align=center;verticalAlign=middle;whiteSpace=wrap;rounded=0;fontColor=#181a1b;" vertex="1" parent="1">
          <mxGeometry x="514.76" y="393" width="60" height="30" as="geometry" />
        </mxCell>
      </root>
    </mxGraphModel>
  </diagram>
</mxfile>
